<?xml version="1.0" encoding="UTF-8"?>
<svg version="1.1" xmlns="http://www.w3.org/2000/svg" width="365" height="365">
<path d="M0 0 C120.45 0 240.9 0 365 0 C365 120.45 365 240.9 365 365 C244.55 365 124.1 365 0 365 C0 244.55 0 124.1 0 0 Z " fill="#489E48" transform="translate(0,0)"/>
<path d="M0 0 C120.45 0 240.9 0 365 0 C365 120.45 365 240.9 365 365 C244.55 365 124.1 365 0 365 C0 244.55 0 124.1 0 0 Z M45.70703125 28.55859375 C32.16919696 45.15415382 31.25595868 62.02384718 31.35302734 82.71704102 C31.3462386 85.1664698 31.33732847 87.61589347 31.32647705 90.06530762 C31.30617103 95.98739147 31.30896728 101.90918323 31.32354026 107.83125848 C31.33490051 112.65005882 31.33633435 117.46877055 31.33092117 122.28758049 C31.33015501 122.97727327 31.32938884 123.66696604 31.32859946 124.3775586 C31.3270006 125.77928785 31.32537953 127.18101707 31.3237365 128.58274626 C31.30953006 141.68028701 31.32579163 154.77765185 31.35273834 167.87516373 C31.37507752 179.07954278 31.37118683 190.28366271 31.34814453 201.48803711 C31.32130438 214.54497068 31.31089765 227.60175072 31.32620585 240.65870804 C31.32779836 242.05455043 31.32937022 243.45039284 31.33092117 244.84623528 C31.33169255 245.53276077 31.33246393 246.21928626 31.33325868 246.92661555 C31.33755077 251.73236561 31.33034349 256.53801713 31.31852341 261.34375191 C31.30292444 267.82747351 31.31424515 274.31082352 31.34299469 280.79450226 C31.349563 283.16308476 31.34778154 285.53170868 31.33668137 287.90027428 C31.24528974 309.39564646 34.40840634 326.43944091 49.57421875 342.67578125 C64.65070253 357.12104349 81.00245872 359.45448554 100.99682617 359.41992188 C103.0118761 359.42727135 105.02692182 359.43586013 107.04196167 359.44558716 C112.49059551 359.46772232 117.93907776 359.47073775 123.38775039 359.46883965 C127.94987036 359.46871954 132.51195868 359.47730009 137.0740698 359.48561716 C147.84635793 359.50482351 158.61856858 359.50774558 169.39086914 359.50097656 C180.47048018 359.49434195 191.5497578 359.51718342 202.62930125 359.55429029 C212.17026557 359.58507426 221.71112312 359.59633779 231.25213605 359.59245348 C236.9378533 359.5903945 242.62331112 359.59573271 248.30898094 359.62034607 C253.66163414 359.6427539 259.01374892 359.6406194 264.36640549 359.62041855 C266.31895562 359.61703291 268.27154301 359.62199058 270.22404289 359.63640213 C290.06412326 359.7726144 306.65596453 355.62502142 321.54296875 341.67578125 C329.14424317 333.39776379 334.26668183 323.91700294 337 313 C337.26345781 311.98879137 337.26345781 311.98879137 337.53223801 310.95715427 C338.2123044 306.65782839 338.14443894 302.41078851 338.14044189 298.06443787 C338.14341302 297.05591155 338.14638414 296.04738523 338.1494453 295.0082975 C338.15812558 291.62458253 338.15964 288.24090296 338.16113281 284.85717773 C338.16576153 282.43259099 338.17078626 280.00800497 338.17617798 277.5834198 C338.18930043 270.9922121 338.1957838 264.40101176 338.20018864 257.80979419 C338.2029545 253.69044094 338.20719255 249.57109003 338.21169281 245.45173836 C338.22388461 234.03633872 338.23418327 222.62094094 338.2375679 211.20553493 C338.23778747 210.47526169 338.23800703 209.74498845 338.23823325 208.99258572 C338.23845153 208.26060463 338.23866981 207.52862354 338.2388947 206.77446121 C338.23933816 205.2912912 338.23978472 203.80812118 338.24023438 202.32495117 C338.2404558 201.58925394 338.24067723 200.85355671 338.24090537 200.09556562 C338.24484974 188.18615369 338.2622931 176.27680309 338.2855939 164.36741482 C338.30934823 152.12690183 338.32177165 139.88641955 338.32293582 127.64588314 C338.32385043 120.77872919 338.32954824 113.9116551 338.34775543 107.04452324 C338.36483313 100.58077883 338.36637857 94.11714525 338.35761642 87.65338326 C338.35684743 85.28634358 338.36117052 82.91929569 338.37107468 80.55227661 C338.64371271 64.01110519 338.64371271 64.01110519 335 48 C334.75742588 47.33373313 334.51485176 46.66746626 334.26492691 45.98100948 C328.1569223 30.83763403 316.80967108 19.72117842 302 13.1875 C290.40200695 8.36049437 278.65707533 8.7075262 266.32861328 8.7253418 C264.33677988 8.72098954 262.34494816 8.71580468 260.3531189 8.70985413 C254.96462844 8.69650834 249.57620832 8.69588052 244.18770456 8.69841743 C239.67994276 8.69949012 235.172195 8.69459616 230.66443622 8.689812 C220.02514071 8.67873215 209.38588051 8.67827088 198.74658203 8.68432617 C187.79139597 8.69036562 176.83633836 8.67805213 165.88117421 8.6567561 C156.45580166 8.63911139 147.03046989 8.63314326 137.60508144 8.63639385 C131.98437751 8.63820223 126.36376522 8.63561496 120.74307632 8.62167931 C115.45540102 8.60905882 110.16792525 8.61108493 104.88025284 8.62409019 C102.94699027 8.62644632 101.01371346 8.6237561 99.08046722 8.61546707 C78.41077935 8.5332783 60.15266026 12.43953583 45.70703125 28.55859375 Z " fill="#FCFDFC" transform="translate(0,0)"/>
<path d="M0 0 C1.60875 -0.05800781 1.60875 -0.05800781 3.25 -0.1171875 C4.23613281 -0.15457031 5.22226562 -0.19195312 6.23828125 -0.23046875 C9.74214605 0.3222393 10.86129073 1.35443875 12.9375 4.1953125 C17.32082339 23.27566138 5.80154249 48.41782425 -4.0625 64.1953125 C-7.17115931 68.70638347 -10.59243144 72.95805191 -14.0625 77.1953125 C-15.00609375 78.45214844 -15.00609375 78.45214844 -15.96875 79.734375 C-28.05449912 93.93963982 -46.38186799 102.59138425 -64.0625 107.1953125 C-64.97257813 107.44023437 -65.88265625 107.68515625 -66.8203125 107.9375 C-71.34632522 109.05749637 -75.44206781 109.39192664 -80.0625 109.1953125 C-79.30287775 88.68551167 -54.94898016 69.26748255 -41.0625 56.1953125 C-38.12220438 53.62942185 -35.08203675 51.2130948 -31.96875 48.859375 C-29.79881778 47.24880154 -29.79881778 47.24880154 -29.0625 44.1953125 C-43.37769568 46.24399882 -58.02613088 61.23088868 -68.0625 71.1953125 C-68.7225 72.1853125 -69.3825 73.1753125 -70.0625 74.1953125 C-70.7225 74.1953125 -71.3825 74.1953125 -72.0625 74.1953125 C-72.31773437 74.75734375 -72.57296875 75.319375 -72.8359375 75.8984375 C-74.21940623 78.48913691 -75.88179191 80.62882643 -77.6875 82.9453125 C-93.78597573 104.94558877 -97.83829935 130.27599723 -98.14219666 157.04141235 C-98.1770342 159.94239581 -98.22945421 162.84299357 -98.28146362 165.74371338 C-98.30207739 167.20597365 -98.3134794 168.66839412 -98.31546021 170.13079834 C-98.31850633 172.21050501 -98.35184155 174.28788211 -98.390625 176.3671875 C-98.3999707 177.5850293 -98.40931641 178.80287109 -98.41894531 180.05761719 C-99.0625 183.1953125 -99.0625 183.1953125 -101.41699219 185.59082031 C-104.67702272 187.5680186 -106.30979567 187.82076322 -110.0625 187.1953125 C-112.71459961 185.72314453 -112.71459961 185.72314453 -115.0625 183.1953125 C-115.77720856 180.21466572 -115.68867599 177.30211012 -115.62890625 174.25 C-115.63454086 173.36611603 -115.64017548 172.48223206 -115.64598083 171.57156372 C-115.66243264 168.73727785 -115.64695769 165.90454327 -115.625 163.0703125 C-115.47254776 137.79859131 -118.8353255 114.54173212 -137.33740234 95.81152344 C-150.66731229 83.2821456 -150.66731229 83.2821456 -167.0625 76.1953125 C-166.34504644 78.65761247 -166.34504644 78.65761247 -165.0625 81.1953125 C-164.49015625 81.47890625 -163.9178125 81.7625 -163.328125 82.0546875 C-157.85803195 84.80859642 -153.48676195 89.98247546 -149.0625 94.1953125 C-148.52399414 94.70513672 -147.98548828 95.21496094 -147.43066406 95.74023438 C-130.50240711 111.85749539 -130.50240711 111.85749539 -130.0625 122.1953125 C-149.36555904 123.54991313 -168.58991777 113.47432034 -182.9375 101.2578125 C-196.81611085 88.14739044 -206.85413838 70.28283374 -208.21826172 50.99267578 C-208.27091306 49.06024113 -208.1767492 47.12508528 -208.0625 45.1953125 C-204.95063527 42.08344777 -201.65590211 42.90280669 -197.40380859 42.86572266 C-196.23930176 42.8713623 -195.07479492 42.87700195 -193.875 42.8828125 C-192.68986816 42.88845215 -191.50473633 42.8940918 -190.28369141 42.89990234 C-170.3470546 43.17539835 -148.81798344 48.37780101 -134.1875 62.8203125 C-133.14489763 63.94444539 -132.10312318 65.06934721 -131.0625 66.1953125 C-130.2375 66.9171875 -129.4125 67.6390625 -128.5625 68.3828125 C-120.43211926 77.52949083 -116.41263851 88.545048 -114 100.3203125 C-113.13973807 104.45924337 -112.30117077 108.49177427 -110.94140625 112.5 C-110.0625 115.1953125 -110.0625 115.1953125 -110.0625 119.1953125 C-109.4025 119.1953125 -108.7425 119.1953125 -108.0625 119.1953125 C-107.80339844 117.91398437 -107.54429687 116.63265625 -107.27734375 115.3125 C-106.13182588 110.1521284 -104.40538982 105.28906067 -102.625 100.3203125 C-100.2118015 93.38613071 -98.44906747 86.7252626 -97.5 79.4453125 C-94.90144288 60.05468617 -86.83985572 43.17453424 -73.0625 29.1953125 C-72.52367187 28.58429688 -71.98484375 27.97328125 -71.4296875 27.34375 C-56.40507809 10.8091296 -33.36424132 4.31956789 -12.0625 1.1953125 C-11.18722656 1.06253906 -10.31195313 0.92976562 -9.41015625 0.79296875 C-6.2781118 0.37951623 -3.1521813 0.20103197 0 0 Z " fill="#FAFCFA" transform="translate(288.0625,156.8046875)"/>
<path d="M0 0 C1.83159668 0.00737183 1.83159668 0.00737183 3.70019531 0.01489258 C38.5870875 0.46116285 72.04920072 13.50485242 98.5 36.3125 C99.11617187 36.80492187 99.73234375 37.29734375 100.3671875 37.8046875 C102.03519858 40.02486776 101.79385749 41.77015777 101.6875 44.5 C101.64689453 45.85158203 101.64689453 45.85158203 101.60546875 47.23046875 C101.57066406 47.91753906 101.53585937 48.60460937 101.5 49.3125 C100.84 49.3125 100.18 49.3125 99.5 49.3125 C99.231875 49.93125 98.96375 50.55 98.6875 51.1875 C97.5 53.3125 97.5 53.3125 94.5 55.3125 C91.4375 56 91.4375 56 87.5 55.3125 C84.94002285 53.32851771 82.67898931 51.12661172 80.34375 48.8828125 C59.2986776 29.86130476 29.88255424 21.8804702 2.1875 22 C1.50579742 22.00215515 0.82409485 22.0043103 0.12173462 22.00653076 C-10.06086954 22.0581381 -19.65294926 22.4793507 -29.5 25.3125 C-30.22960937 25.52181152 -30.95921875 25.73112305 -31.7109375 25.94677734 C-49.01032381 31.02236556 -66.61481926 39.51405847 -78.4375 53.625 C-80.5 55.3125 -80.5 55.3125 -83.9375 55.875 C-88.36029058 55.17666465 -89.72561165 53.73968561 -92.5 50.3125 C-94.15823774 46.99602453 -94.22561109 43.87114919 -93.5 40.3125 C-86.42712579 27.81625581 -69.77835183 19.69711627 -57.5 13.3125 C-55.89705078 12.46171875 -55.89705078 12.46171875 -54.26171875 11.59375 C-37.62742026 3.30830526 -18.45032257 -0.08867876 0 0 Z " fill="#F8FCF8" transform="translate(181.5,39.6875)"/>
<path d="M0 0 C1.57201172 0.69609375 1.57201172 0.69609375 3.17578125 1.40625 C11.3756009 5.23495956 21.29103052 10.79359591 27 18 C27.68888272 21.06552808 27.58473948 23.91928922 27 27 C24.54542595 30.20458279 21.91679195 32.81309335 18 34 C13.60633673 34.09985598 11.4799028 32.74155964 8.375 29.875 C-6.03682632 16.58015833 -26.19260037 11.41146216 -45.42578125 11.75 C-62.4359183 12.93978008 -78.77486922 19.32474594 -91.3125 31 C-94 33 -94 33 -97.5 33.75 C-101.76178214 32.83676097 -103.3132326 31.49297875 -105.890625 28.0703125 C-107.87708608 24.36318444 -107.73838223 22.16179077 -107 18 C-105.35349509 15.80466011 -104.11522316 14.64678333 -102 13 C-101.02933594 12.10861328 -101.02933594 12.10861328 -100.0390625 11.19921875 C-73.011829 -12.55338407 -31.62106773 -14.57784817 0 0 Z " fill="#F7FCF7" transform="translate(225,94)"/>
<path d="M0 0 C4.73926377 3.34859177 4.73926377 3.34859177 5.5625 6.48046875 C5.69510308 9.97034071 5.72875515 12.43251427 3.6640625 15.3515625 C0.8370058 17.97847359 -0.9284678 19.29491198 -4.83203125 19.796875 C-8.67445102 19.34819493 -10.90210253 18.04693288 -14.1640625 15.9921875 C-22.01334518 11.10489828 -29.82354758 9.80416292 -38.9765625 11.4296875 C-42.692683 12.78924378 -46.1046764 14.62197285 -49.4831543 16.67163086 C-52.86783851 18.67048792 -54.81489455 19.43398982 -58.79296875 19.328125 C-62.70690329 18.22357906 -63.83011099 16.81447642 -65.9765625 13.4296875 C-67.5933332 10.19614611 -67.45288179 8.00208215 -66.9765625 4.4296875 C-51.59664372 -16.90204917 -18.68967854 -11.48701173 0 0 Z " fill="#F8FCF8" transform="translate(215.9765625,139.5703125)"/>
<path d="M0 0 C-1.54972164 4.13259105 -4.54455502 6.319535 -7.875 9 C-14.40738055 14.4296475 -20.48686117 20.25342021 -26.5 26.25 C-27.34804199 27.08917969 -28.19608398 27.92835938 -29.06982422 28.79296875 C-33.84152955 33.5864454 -38.13688778 38.4476361 -42 44 C-42.66386719 44.93585938 -43.32773438 45.87171875 -44.01171875 46.8359375 C-47.88318781 52.70179971 -50.43700916 58.13772594 -52 65 C-52.66 64.01 -53.32 63.02 -54 62 C-57.08365871 61.7497843 -57.08365871 61.7497843 -60 62 C-60.495 62.99 -60.495 62.99 -61 64 C-62.09061975 60.67205173 -62.06454457 59.17722406 -60.84765625 55.8359375 C-53.36435127 41.32782325 -20.81912646 -6.24573794 0 0 Z " fill="#519950" transform="translate(260,201)"/>
<path d="M0 0 C0.33 0 0.66 0 1 0 C1 82.5 1 165 1 250 C-1.35960796 247.64039204 -1.27906411 247.12742299 -1.40966797 243.91455078 C-1.44778595 243.01437225 -1.48590393 242.11419373 -1.525177 241.18673706 C-1.55554047 240.15831696 -1.58590393 239.12989685 -1.6171875 238.0703125 C-1.65472137 236.94577667 -1.69225525 235.82124084 -1.73092651 234.66262817 C-2.30228833 214.61876452 -2.15147486 194.55430763 -2.12877274 174.50457001 C-2.12497299 170.84901393 -2.12292428 167.19346048 -2.12130737 163.53790283 C-2.10246766 127.29541182 -1.92763333 91.05489454 -1.59383392 54.81394196 C-1.56253683 51.37904216 -1.53276329 47.94413172 -1.50323486 44.50921631 C-1.45638241 39.13394858 -1.40408992 33.7587612 -1.34718513 28.3835907 C-1.32691419 26.41757172 -1.30811232 24.45153696 -1.29089165 22.48548889 C-1.26690712 19.80714907 -1.23695625 17.12894249 -1.20532227 14.45068359 C-1.19956743 13.67547804 -1.1938126 12.90027248 -1.18788338 12.10157585 C-1.13182092 7.97136243 -0.79893406 4.0537014 0 0 Z " fill="#C3E4C8" transform="translate(31,58)"/>
<path d="M0 0 C1.07599205 0.01281384 2.1519841 0.02562767 3.26058197 0.0388298 C16.17400047 0.19431152 29.08711168 0.36797518 42 0.5625 C39.44726274 3.11523726 37.80431542 2.80154802 34.32400262 2.82066262 C33.52440201 2.81483693 32.72480139 2.80901125 31.90097046 2.80300903 C31.05396627 2.80471788 30.20696208 2.80642673 29.3342911 2.80818737 C26.47977492 2.81149672 23.62549083 2.80045489 20.77099609 2.78955078 C18.73131821 2.78898698 16.69163992 2.78930262 14.65196228 2.79043579 C9.1005696 2.79101152 3.54926268 2.77922174 -2.00211 2.76528788 C-7.79838919 2.75281703 -13.59467016 2.7516129 -19.39096069 2.74923706 C-30.37340459 2.74301154 -41.35580885 2.72658626 -52.33823526 2.70653808 C-64.83864287 2.68421237 -77.33905234 2.67319404 -89.83947492 2.66314721 C-115.55967195 2.64222094 -141.27983376 2.6070242 -167 2.5625 C-167.33 1.9025 -167.66 1.2425 -168 0.5625 C-151.37520336 0.35567685 -134.75021722 0.16969509 -118.125 0 C-116.8786377 -0.01273327 -115.63227539 -0.02546654 -114.34814453 -0.03858566 C-76.22586739 -0.42224124 -38.12162721 -0.4544654 0 0 Z " fill="#488D4A" transform="translate(248,356.4375)"/>
<path d="M0 0 C1.17779894 0.00669217 1.17779894 0.00669217 2.37939179 0.01351953 C3.21132306 0.01039954 4.04325433 0.00727956 4.90039563 0.00406504 C7.70410364 -0.00394882 10.50759723 0.00242185 13.31130707 0.00869775 C15.31493996 0.00598935 17.31857185 0.00242927 19.32220185 -0.00192237 C24.77674816 -0.01106776 30.23121912 -0.00749297 35.68576682 -0.0011642 C41.38542209 0.00388609 47.08507075 -0.00079307 52.78472626 -0.00393653 C62.36000461 -0.00757961 71.93525215 -0.00276875 81.51052582 0.00674462 C92.5883752 0.01762361 103.66615094 0.01410899 114.74399853 0.00309181 C124.24381684 -0.00597875 133.74361295 -0.00726728 143.24343419 -0.00203085 C148.92210587 0.00109092 154.60074292 0.00149264 160.27941239 -0.00510383 C165.61945402 -0.01087307 170.95940058 -0.00688807 176.29943192 0.00468469 C178.26184664 0.00733379 180.22426934 0.00656193 182.18668091 0.00215936 C184.8608899 -0.00328778 187.53479229 0.00352802 190.20898163 0.01351953 C190.98971948 0.00905808 191.77045733 0.00459664 192.5748539 0 C196.33922576 0.02736912 199.22832803 0.1540263 202.42117035 2.26748681 C189.35900069 2.48028915 176.29652383 2.66457376 163.23367035 2.82998681 C162.22924016 2.84272008 161.22480996 2.85545335 160.18994248 2.86857247 C121.82388709 3.34596477 83.47392333 3.20289093 45.10867035 2.82998681 C43.78921544 2.81717298 42.46976052 2.80435914 41.11032212 2.79115701 C24.88042726 2.63212499 8.65073036 2.45756923 -7.57882965 2.26748681 C-5.04564159 -0.26570124 -3.45512578 0.02530471 0 0 Z " fill="#418942" transform="translate(87.57882964611053,8.732513189315796)"/>
<path d="M0 0 C7.71178307 0.74815806 13.01537756 5.49433598 19 10 C20.03125 10.76828125 21.0625 11.5365625 22.125 12.328125 C32.18147129 20.23712065 44.12227036 32.03923294 47 45 C46.10546875 47.3046875 46.10546875 47.3046875 45 49 C45 47.68 45 46.36 45 45 C43.68 44.67 42.36 44.34 41 44 C41 43.01 41 42.02 41 41 C38.525 41.495 38.525 41.495 36 42 C35.74347656 41.46632813 35.48695313 40.93265625 35.22265625 40.3828125 C31.74871809 33.62208436 27.261259 28.44350141 22 23 C21.52046875 22.50000488 21.0409375 22.00000977 20.546875 21.48486328 C15.18109778 15.90991756 9.85573379 10.6952952 3.4921875 6.24609375 C1.39267074 4.49283238 0.61825338 2.62757686 0 0 Z " fill="#509751" transform="translate(121,233)"/>
<path d="M0 0 C0.33 0 0.66 0 1 0 C1.02280243 31.27085768 1.04050443 62.54171316 1.05106533 93.81257717 C1.05231607 97.50265563 1.05361039 101.19273407 1.05493164 104.8828125 C1.05519395 105.61745449 1.05545626 106.35209648 1.05572652 107.10900036 C1.06008028 119.01117586 1.06796622 130.91334654 1.0771528 142.81551918 C1.08649749 155.02419217 1.09205735 167.23286263 1.09408849 179.44153905 C1.09546202 186.97763617 1.09980344 194.51371966 1.10791647 202.04981259 C1.11381698 207.82414857 1.11445688 213.59847578 1.11310768 219.37281418 C1.11338359 221.74481922 1.11538325 224.11682477 1.11920547 226.48882675 C1.12415706 229.71919394 1.1229928 232.94950214 1.12025452 236.17987061 C1.12316736 237.12539252 1.1260802 238.07091444 1.12908131 239.04508853 C1.12709026 239.90996804 1.12509921 240.77484754 1.12304783 241.66593552 C1.12342755 242.41170624 1.12380727 243.15747697 1.1241985 243.92584682 C0.9963618 246.060759 0.58455535 247.94688727 0 250 C-0.66 250 -1.32 250 -2 250 C-2.33 251.65 -2.66 253.3 -3 255 C-3.66 254.67 -4.32 254.34 -5 254 C-4.71758327 253.19147552 -4.43516655 252.38295103 -4.14419174 251.5499258 C-0.39986571 239.50046631 -0.42315692 227.89205168 -0.45410156 215.35766602 C-0.44535267 213.00079674 -0.43486234 210.64393338 -0.42277527 208.28707886 C-0.39505614 201.93068401 -0.39150747 195.57448433 -0.39249516 189.21803784 C-0.38967279 183.23552118 -0.36851862 177.25308008 -0.34752855 171.27060603 C-0.30658331 159.43261051 -0.28316932 147.59464934 -0.27099609 135.7565918 C-0.25914314 124.26697495 -0.23889947 112.77742262 -0.20751953 101.2878418 C-0.20558343 100.57789071 -0.20364733 99.86793962 -0.20165256 99.13647486 C-0.19188702 95.57434096 -0.18195808 92.01220753 -0.17194796 88.45007432 C-0.08930626 58.96675275 -0.03550265 29.48341658 0 0 Z " fill="#D1F4CF" transform="translate(338,69)"/>
<path d="M0 0 C2.46823556 2.88154216 3.3748241 4.61750142 3.36914349 8.41215134 C3.37511663 9.29444782 3.38108978 10.1767443 3.38724393 11.08577704 C3.3785054 12.0507537 3.36976688 13.01573036 3.36076355 14.00994873 C3.36332682 15.03833807 3.3658901 16.06672741 3.36853105 17.12628007 C3.37348442 20.58271707 3.35695003 24.03872022 3.34057617 27.49511719 C3.33973024 29.96858205 3.34020438 32.44204766 3.34190369 34.91551208 C3.34258751 40.24609742 3.33406169 45.57654691 3.31719017 50.90709686 C3.29281272 58.61416073 3.28499619 66.32117132 3.2812262 74.02826956 C3.27465974 86.53238568 3.25469331 99.0364431 3.22631836 111.54052734 C3.19878282 123.68733425 3.17754677 135.83412522 3.16479492 147.98095703 C3.16400675 148.72964203 3.16321858 149.47832702 3.16240653 150.24969944 C3.15849142 154.00561869 3.1547003 157.76153805 3.15097082 161.51745749 C3.11986885 192.67834768 3.06680482 223.83916492 3 255 C2.67 255 2.34 255 2 255 C1.99576806 253.77085562 1.99153612 252.54171124 1.98717594 251.27532005 C1.88635206 222.0531888 1.78061492 192.83107887 1.66888306 163.60898747 C1.65511461 160.00690324 1.64138734 156.40481886 1.62768555 152.80273438 C1.62359309 151.72713565 1.62359309 151.72713565 1.61941796 150.62980767 C1.57542485 139.04155897 1.53476314 127.45330088 1.49534739 115.86503582 C1.45478425 103.96140329 1.41060669 92.05778807 1.36312145 80.15418112 C1.33657408 73.47360672 1.31177692 66.79303309 1.29092598 60.1124382 C1.27122444 53.8170232 1.24704191 47.52164089 1.21950912 41.22625542 C1.21020978 38.92296002 1.20250956 36.61965748 1.19658089 34.31635094 C1.16613242 22.83512879 1.08568067 11.43957072 0 0 Z " fill="#F1FFEF" transform="translate(337,55)"/>
<path d="M0 0 C0.33 0 0.66 0 1 0 C0.94465088 0.680625 0.88930176 1.36125 0.83227539 2.0625 C0.56775059 5.37442752 0.3137959 8.6870419 0.0625 12 C-0.07998169 13.85334961 -0.07998169 13.85334961 -0.2253418 15.74414062 C-0.73352126 22.78222847 -1.08007421 29.78765471 -1.1796875 36.84375 C-1.19216019 37.56892822 -1.20463287 38.29410645 -1.21748352 39.04125977 C-1.27725384 42.5907658 -1.31178638 46.13749713 -1.30639648 49.6875 C-1.32516846 50.9765625 -1.34394043 52.265625 -1.36328125 53.59375 C-1.36626221 54.73521484 -1.36924316 55.87667969 -1.37231445 57.05273438 C-2 60 -2 60 -4.34448242 62.37304688 C-7.55627619 64.34081314 -9.29554705 64.5637211 -13 64 C-14.875 62.5 -14.875 62.5 -16 61 C-9.375 60.875 -9.375 60.875 -6 62 C-5.67 61.01 -5.34 60.02 -5 59 C-4.34 59 -3.68 59 -3 59 C-3.04600342 57.7404248 -3.09200684 56.48084961 -3.1394043 55.18310547 C-3.30777481 50.44595441 -3.45312806 45.70831353 -3.59204102 40.97021484 C-3.65491343 38.93160483 -3.72377297 36.8931693 -3.79907227 34.85498047 C-4.62851106 12.17623102 -4.62851106 12.17623102 -1 1 C-0.67 0.67 -0.34 0.34 0 0 Z " fill="#B5DBB6" transform="translate(191,280)"/>
<path d="M0 0 C1.4535556 2.90711121 0.71133997 4.89597103 0 8 C-0.66 8.66 -1.32 9.32 -2 10 C-6.67957525 15.72357498 -9.55853818 22.55282432 -9 30 C-9.33 30.66 -9.66 31.32 -10 32 C-10.66 32 -11.32 32 -12 32 C-12.66 35.63 -13.32 39.26 -14 43 C-17.05741679 30.77033284 -9.20809853 15.45108409 -3.125 5 C-2.096175 3.32537576 -1.05964092 1.65529706 0 0 Z " fill="#DFF5DE" transform="translate(206,196)"/>
<path d="M0 0 C0.66 0 1.32 0 2 0 C1.67925956 1.33641852 1.34135927 2.66869885 1 4 C0.71125 5.175625 0.4225 6.35125 0.125 7.5625 C-0.99482739 10.9841948 -1.56153404 11.65907268 -4 14 C-5.13809601 16.29171151 -6.05595866 18.61741948 -7 21 C-7.99 21 -8.98 21 -10 21 C-11.32789969 18.8128711 -12.04752686 17.52279544 -11.8125 14.9375 C-10.89199398 12.74244718 -9.78403777 11.55133719 -8 10 C-8 10.66 -8 11.32 -8 12 C-7.34 12 -6.68 12 -6 12 C-5.938125 11.319375 -5.87625 10.63875 -5.8125 9.9375 C-4.73598615 6.04548838 -2.74334968 2.96555246 0 0 Z " fill="#489D48" transform="translate(217,235)"/>
<path d="M0 0 C2.55590913 2.22252968 3.38455465 3.69288438 4 7 C4.08469708 8.64897611 4.11778092 10.30100408 4.11352539 11.95214844 C4.11341209 13.42322052 4.11341209 13.42322052 4.11329651 14.92401123 C4.10813522 15.97518127 4.10297394 17.02635132 4.09765625 18.109375 C4.0962413 19.19132141 4.09482635 20.27326782 4.09336853 21.38800049 C4.08777318 24.8420285 4.0752215 28.29599159 4.0625 31.75 C4.0574844 34.09244698 4.0529216 36.43489498 4.04882812 38.77734375 C4.03780528 44.5182513 4.02107174 50.25912101 4 56 C4.66 56.33 5.32 56.66 6 57 C5.01 57 4.02 57 3 57 C2.98018066 55.78530029 2.96036133 54.57060059 2.93994141 53.3190918 C2.86324773 48.76583877 2.77463441 44.21287909 2.68261719 39.65991211 C2.64458863 37.69805743 2.60969276 35.7361392 2.578125 33.77416992 C2.47692965 19.80865924 2.47692965 19.80865924 0.41552734 6.03442383 C0 4 0 4 0 0 Z " fill="#E0FAE1" transform="translate(170,283)"/>
<path d="M0 0 C1.07878418 0.01047363 2.15756836 0.02094727 3.26904297 0.03173828 C5.01894531 0.04140625 5.01894531 0.04140625 6.80419922 0.05126953 C8.02751953 0.06802734 9.25083984 0.08478516 10.51123047 0.10205078 C11.74228516 0.11107422 12.97333984 0.12009766 14.24169922 0.12939453 C17.29006862 0.1530253 20.33805429 0.18597024 23.38623047 0.22705078 C23.38623047 0.55705078 23.38623047 0.88705078 23.38623047 1.22705078 C15.79623047 1.55705078 8.20623047 1.88705078 0.38623047 2.22705078 C-0.7861331 4.19909993 -0.7861331 4.19909993 -0.61376953 6.53955078 C-0.61376953 9.22705078 -0.61376953 9.22705078 -1.17626953 11.41455078 C-1.84849923 15.73602739 -1.1586326 19.91005881 -0.61376953 24.22705078 C-4.26353218 17.54093097 -5.15083101 9.74591153 -4.61376953 2.22705078 C-2.61376953 0.22705078 -2.61376953 0.22705078 0 0 Z " fill="#E2FAE2" transform="translate(84.61376953125,199.77294921875)"/>
<path d="M0 0 C0.66 0.33 1.32 0.66 2 1 C0.75971762 7.17222879 -0.89603589 13.06682122 -3 19 C-3.66 19 -4.32 19 -5 19 C-5.66 15.7 -6.32 12.4 -7 9 C-6.01 8.34 -5.02 7.68 -4 7 C-3.27034634 4.43717258 -3.27034634 4.43717258 -3 2 C-2.01 2.33 -1.02 2.66 0 3 C0 2.01 0 1.02 0 0 Z " fill="#4E9A50" transform="translate(183,257)"/>
<path d="M0 0 C0 0.33 0 0.66 0 1 C-0.95869995 1.15033691 -0.95869995 1.15033691 -1.93676758 1.30371094 C-17.35078128 3.53376247 -17.35078128 3.53376247 -32.109375 8.265625 C-34 9 -34 9 -37 9 C-37.33 8.01 -37.66 7.02 -38 6 C-25.22330188 2.44804344 -13.38360288 -0.42042732 0 0 Z " fill="#4F8F51" transform="translate(282,157)"/>
<path d="M0 0 C0.33 0.99 0.66 1.98 1 3 C1.66 3.33 2.32 3.66 3 4 C2.34 4.66 1.68 5.32 1 6 C0.01 6 -0.98 6 -2 6 C-2.33 7.65 -2.66 9.3 -3 11 C-3.66 11 -4.32 11 -5 11 C-5 11.99 -5 12.98 -5 14 C-9.34285714 18 -9.34285714 18 -12 18 C-10.5703053 13.91196673 -8.57586645 10.78329064 -6 7.3125 C-5.29875 6.35988281 -4.5975 5.40726563 -3.875 4.42578125 C-2 2 -2 2 0 0 Z " fill="#509951" transform="translate(49,25)"/>
<path d="M0 0 C0.33 1.32 0.66 2.64 1 4 C-0.2065625 4.4640625 -0.2065625 4.4640625 -1.4375 4.9375 C-5.78226574 7.03248206 -8.67792555 10.6932643 -11.8515625 14.234375 C-12.56054688 14.81703125 -13.26953125 15.3996875 -14 16 C-16.2734375 15.765625 -16.2734375 15.765625 -18 15 C-16.08643227 13.05935348 -14.16932062 11.122443 -12.25 9.1875 C-11.71117187 8.64029297 -11.17234375 8.09308594 -10.6171875 7.52929688 C-3.13352273 0 -3.13352273 0 0 0 Z " fill="#F1FCEF" transform="translate(228,176)"/>
<path d="M0 0 C1.32 0.66 2.64 1.32 4 2 C3.01 2.495 3.01 2.495 2 3 C2 3.66 2 4.32 2 5 C3.65 5 5.3 5 7 5 C6.04578192 6.14926266 5.08647955 7.29430541 4.125 8.4375 C3.59132812 9.07558594 3.05765625 9.71367187 2.5078125 10.37109375 C1 12 1 12 -1 13 C-0.49396008 10.83125748 -0.00016187 9.00032373 1 7 C-1.64 7 -4.28 7 -7 7 C-4.66666667 4.66666667 -2.33333333 2.33333333 0 0 Z " fill="#57985A" transform="translate(233,215)"/>
<path d="M0 0 C0.33 0.66 0.66 1.32 1 2 C-0.10281127 3.27200971 -1.20730769 4.54255853 -2.3125 5.8125 C-2.92738281 6.52019531 -3.54226562 7.22789063 -4.17578125 7.95703125 C-7.44911047 11.6228796 -7.44911047 11.6228796 -9 13 C-9.66 13 -10.32 13 -11 13 C-9.87302957 17.96911366 -9.87302957 17.96911366 -7 22 C-7 22.99 -7 23.98 -7 25 C-7.66 25 -8.32 25 -9 25 C-11.71966832 21.65271591 -12.70654557 18.45790021 -12.55078125 14.12109375 C-10.98871769 8.10548729 -4.81416677 3.5012122 0 0 Z " fill="#E0F8E0" transform="translate(100,68)"/>
<path d="M0 0 C0.66 0 1.32 0 2 0 C0.799174 3.08783829 -0.5196206 6.0392412 -2 9 C-3.02144248 11.3246622 -4.01059198 13.66139922 -5 16 C-5.99 16 -6.98 16 -8 16 C-8.66 16.66 -9.32 17.32 -10 18 C-10 13.46439574 -9.2936953 12.53967726 -6.6875 9 C-6.07261719 8.154375 -5.45773438 7.30875 -4.82421875 6.4375 C-3.92123047 5.2309375 -3.92123047 5.2309375 -3 4 C-2.47019531 3.236875 -1.94039062 2.47375 -1.39453125 1.6875 C-0.93433594 1.130625 -0.47414062 0.57375 0 0 Z " fill="#559855" transform="translate(216,231)"/>
<path d="M0 0 C5.91818676 7.48428074 8.21806333 17.55618061 8 27 C7.67 26.34 7.34 25.68 7 25 C6.34 25 5.68 25 5 25 C4.87882813 24.15695312 4.75765625 23.31390625 4.6328125 22.4453125 C4.46523437 21.34960938 4.29765625 20.25390625 4.125 19.125 C3.96257812 18.03445312 3.80015625 16.94390625 3.6328125 15.8203125 C3.23743487 12.88067286 3.23743487 12.88067286 1 11 C0.5859375 8.3984375 0.5859375 8.3984375 0.375 5.375 C0.30023438 4.37210938 0.22546875 3.36921875 0.1484375 2.3359375 C0.09945312 1.56507813 0.05046875 0.79421875 0 0 Z " fill="#C3E5C4" transform="translate(166,236)"/>
<path d="M0 0 C0.66 0.33 1.32 0.66 2 1 C1.54616907 4.53988125 0.78163119 7.72528231 -0.4375 11.0625 C-2.47234821 16.88775174 -3.19908845 22.9036497 -4 29 C-4.33 29 -4.66 29 -5 29 C-5.67406532 19.11370858 -3.87467743 10.38599498 -1 1 C-0.67 0.67 -0.34 0.34 0 0 Z " fill="#599858" transform="translate(195,211)"/>
<path d="M0 0 C0.33 0.99 0.66 1.98 1 3 C-4.75 8 -4.75 8 -7 8 C-7.2475 8.61875 -7.495 9.2375 -7.75 9.875 C-9.23101402 12.39272383 -10.25177691 13.08392564 -13 14 C-13.99 13.67 -14.98 13.34 -16 13 C-10.87008301 8.31211667 -5.74728311 3.91304382 0 0 Z " fill="#4C904D" transform="translate(120,78)"/>
<path d="M0 0 C-1.01320313 0.79664062 -1.01320313 0.79664062 -2.046875 1.609375 C-2.93890625 2.31578125 -3.8309375 3.0221875 -4.75 3.75 C-5.63171875 4.44609375 -6.5134375 5.1421875 -7.421875 5.859375 C-10.0136417 7.91837032 -10.0136417 7.91837032 -12.09375 10.25 C-14 12 -14 12 -17.75 12.25 C-18.8225 12.1675 -19.895 12.085 -21 12 C-21 11.67 -21 11.34 -21 11 C-19.02 11 -17.04 11 -15 11 C-14.67 10.01 -14.34 9.02 -14 8 C-13.34 7.67 -12.68 7.34 -12 7 C-11.566875 6.030625 -11.13375 5.06125 -10.6875 4.0625 C-9 1 -9 1 -6.5625 -0.4375 C-3.86103524 -1.03050446 -2.59572595 -0.75502007 0 0 Z " fill="#D8F3D8" transform="translate(115,83)"/>
<path d="M0 0 C2.31 0 4.62 0 7 0 C3.98272461 2.01151693 1.34069996 3.03312278 -2.0625 4.25 C-8.17387517 6.54519135 -13.55343444 9.42223346 -19 13 C-19 12.01 -19 11.02 -19 10 C-18.01 10 -17.02 10 -16 10 C-15.79375 9.38125 -15.5875 8.7625 -15.375 8.125 C-13.45224112 5.15346355 -11.33405473 4.86975341 -8 4 C-8 3.67 -8 3.34 -8 3 C-5.36 2.67 -2.72 2.34 0 2 C0 1.34 0 0.68 0 0 Z " fill="#CEEECE" transform="translate(158,107)"/>
<path d="M0 0 C-3.84266219 2.56177479 -7.92478878 3.6888309 -12.28710938 5.05664062 C-15.4583281 6.07562082 -18.33597287 7.17575805 -21.29296875 8.72265625 C-24 10 -24 10 -27 9 C-26.4225 8.731875 -25.845 8.46375 -25.25 8.1875 C-22.99539755 7.09952003 -22.99539755 7.09952003 -21.29296875 5.5625 C-18.34192226 3.55156542 -15.49754809 2.7693277 -12.0625 1.8125 C-10.85722656 1.46832031 -9.65195313 1.12414062 -8.41015625 0.76953125 C-5.44531437 0.10048904 -3.01601035 -0.16596641 0 0 Z " fill="#D8F3D9" transform="translate(152,64)"/>
<path d="M0 0 C-1.97665742 2.80810856 -3.3468356 3.08419038 -6.765625 3.9140625 C-8.25842105 4.16330376 -9.75337832 4.39986717 -11.25 4.625 C-11.98863281 4.74617188 -12.72726563 4.86734375 -13.48828125 4.9921875 C-17.98340794 5.7215555 -22.49033225 6.36769209 -27 7 C-23.07480248 4.38320165 -19.15737144 3.54552235 -14.625 2.375 C-13.77421875 2.14554688 -12.9234375 1.91609375 -12.046875 1.6796875 C-7.96387855 0.61123983 -4.25996046 -0.33308333 0 0 Z " fill="#DCF6DD" transform="translate(161,42)"/>
<path d="M0 0 C2.0625 0.4375 2.0625 0.4375 4 1 C1.48241883 1.98829417 -1.03854724 2.9657226 -3.5625 3.9375 C-4.26697266 4.21529297 -4.97144531 4.49308594 -5.69726562 4.77929688 C-10.16090498 6.4865875 -14.24380456 7.50625566 -19 8 C-19 7.34 -19 6.68 -19 6 C-12.98571924 3.66171724 -7.42246695 1.69809423 -1 1 C-0.67 0.67 -0.34 0.34 0 0 Z " fill="#D3F0D1" transform="translate(240,256)"/>
<path d="M0 0 C0.99 0.33 1.98 0.66 3 1 C-0.76774711 4.88192126 -4.62797789 8.79531881 -9 12 C-9.66 12 -10.32 12 -11 12 C-11 10.68 -11 9.36 -11 8 C-10.34 8 -9.68 8 -9 8 C-9 7.34 -9 6.68 -9 6 C-8.2575 5.7525 -7.515 5.505 -6.75 5.25 C-3.79875938 3.90852699 -2.15185026 2.39094474 0 0 Z " fill="#DCF4DD" transform="translate(268,236)"/>
<path d="M0 0 C2.7972908 2.06756277 3.02692273 3.14440371 3.6875 6.6875 C3.790625 7.780625 3.89375 8.87375 4 10 C-5.41002278 10.18451025 -5.41002278 10.18451025 -10 9 C-10 8.67 -10 8.34 -10 8 C-5.545 7.505 -5.545 7.505 -1 7 C-1 6.01 -1 5.02 -1 4 C-0.6937566 2.66018514 -0.36548445 1.32488113 0 0 Z " fill="#CEEDCD" transform="translate(154,269)"/>
<path d="M0 0 C4.12467583 0.55044606 6.55658462 1.83694092 9.875 4.3125 C13.80666058 7.17295965 17.73076521 9.6797637 22 12 C22 12.33 22 12.66 22 13 C20.02 13 18.04 13 16 13 C16 12.34 16 11.68 16 11 C10.72 8.03 5.44 5.06 0 2 C0 1.34 0 0.68 0 0 Z " fill="#4C8D4E" transform="translate(104,259)"/>
<path d="M0 0 C-8.8372093 7.06976744 -8.8372093 7.06976744 -14.875 6.875 C-15.90625 6.58625 -16.9375 6.2975 -18 6 C-18.33 5.34 -18.66 4.68 -19 4 C-17.1128125 4.0928125 -17.1128125 4.0928125 -15.1875 4.1875 C-11.90520869 4.26121516 -11.90520869 4.26121516 -9.1875 2.5625 C-8.795625 2.046875 -8.40375 1.53125 -8 1 C-5.07175348 0.02391783 -3.04386724 -0.08226668 0 0 Z " fill="#DDF4DF" transform="translate(172,152)"/>
<path d="M0 0 C1.11375 0.4640625 1.11375 0.4640625 2.25 0.9375 C7.07540618 2.80186148 9.84031195 3.05539074 15 2 C15 1.34 15 0.68 15 0 C15.99 0.33 16.98 0.66 18 1 C14.69488488 4.22450256 13.0229305 5.80259236 8.4375 6.6875 C3.68664271 5.73732854 2.69565773 3.9209567 0 0 Z " fill="#DBF5DA" transform="translate(119,121)"/>
<path d="M0 0 C0.66 0 1.32 0 2 0 C2.33 0.99 2.66 1.98 3 3 C2.360625 3.721875 1.72125 4.44375 1.0625 5.1875 C-1.8293827 9.1309764 -1.45987747 11.17128652 -1 16 C-0.13734032 18.40557853 -0.13734032 18.40557853 1 20 C-0.9375 19.6875 -0.9375 19.6875 -3 19 C-4.04976964 15.85069107 -4.10131595 13.61185544 -4.0625 10.3125 C-4.05347656 9.31863281 -4.04445313 8.32476562 -4.03515625 7.30078125 C-4.02355469 6.54152344 -4.01195313 5.78226562 -4 5 C-3.01 4.67 -2.02 4.34 -1 4 C-0.26676204 1.98491642 -0.26676204 1.98491642 0 0 Z " fill="#569756" transform="translate(90,72)"/>
<path d="M0 0 C0.99 0.33 1.98 0.66 3 1 C3.02578125 1.67804688 3.0515625 2.35609375 3.078125 3.0546875 C3.46058536 9.33051434 4.60895443 14.2951604 7.2578125 20.00390625 C7.50273438 20.66261719 7.74765625 21.32132812 8 22 C7.67 22.66 7.34 23.32 7 24 C2.90299985 16.51237903 -0.3123767 8.66845334 0 0 Z " fill="#498D49" transform="translate(32,304)"/>
<path d="M0 0 C5.35294871 0.9732634 10.4343151 1.95621007 15 5 C12.51850975 6.62251286 11.06165333 7 8.0625 7 C3.83457585 5.61945334 2.58003942 3.56652508 0 0 Z " fill="#D3F0D3" transform="translate(232,121)"/>
<path d="M0 0 C5.875 1.875 5.875 1.875 7 3 C8.51469448 3.23192865 10.03754562 3.41215238 11.5625 3.5625 C12.38878906 3.64628906 13.21507812 3.73007813 14.06640625 3.81640625 C14.70449219 3.87699219 15.34257812 3.93757813 16 4 C13.77831876 6.51029844 13.16169413 6.96949167 9.6875 7.625 C5.02825532 6.83529751 3.83283555 5.17166871 1.06640625 1.53125 C0.71449219 1.0259375 0.36257813 0.520625 0 0 Z " fill="#DCF7DD" transform="translate(263,88)"/>
<path d="M0 0 C0.99 0.33 1.98 0.66 3 1 C2.01 2.485 2.01 2.485 1 4 C0.56237071 9.4266032 0.63110992 12.50814656 4 17 C3.34 17.66 2.68 18.32 2 19 C-1.61398697 13.69195663 -3.07646026 9.45876157 -2 3 C-1.34 2.01 -0.68 1.02 0 0 Z " fill="#589458" transform="translate(118,108)"/>
<path d="M0 0 C5.23343613 0.45266443 8.65853828 2.41083918 12.8125 5.4375 C13.39708984 5.84548828 13.98167969 6.25347656 14.58398438 6.67382812 C18.85312781 9.70625562 18.85312781 9.70625562 20 12 C15.98265411 10.62262427 13.27258299 8.66973875 10 6 C9.01 5.67 8.02 5.34 7 5 C7 4.34 7 3.68 7 3 C5.68 2.67 4.36 2.34 3 2 C2.67 2.66 2.34 3.32 2 4 C1.34 2.68 0.68 1.36 0 0 Z " fill="#488649" transform="translate(121,233)"/>
<path d="M0 0 C6.28199181 3.27756095 11.55515231 7.48636368 17 12 C16.34 12.66 15.68 13.32 15 14 C14.29875 13.2575 13.5975 12.515 12.875 11.75 C9.00696739 8.05014272 4.85842121 5.24234825 0 3 C0 2.01 0 1.02 0 0 Z " fill="#548F53" transform="translate(249,79)"/>
<path d="M0 0 C0.33 0 0.66 0 1 0 C1.02707139 2.24993359 1.04642829 4.49996095 1.0625 6.75 C1.07410156 8.00296875 1.08570313 9.2559375 1.09765625 10.546875 C1.02021027 13.28536501 0.82780815 15.41880293 0 18 C-0.66 18 -1.32 18 -2 18 C-2.33 19.65 -2.66 21.3 -3 23 C-3.66 22.67 -4.32 22.34 -5 22 C-4.72285156 20.99839844 -4.44570313 19.99679687 -4.16015625 18.96484375 C-3.79405048 17.62245591 -3.42817749 16.28000457 -3.0625 14.9375 C-2.88009766 14.28072266 -2.69769531 13.62394531 -2.50976562 12.94726562 C-1.34310351 8.6412218 -0.54707195 4.42840346 0 0 Z " fill="#E0F8E0" transform="translate(338,301)"/>
<path d="M0 0 C0.33 0 0.66 0 1 0 C0.67 3.96 0.34 7.92 0 12 C-0.66 12 -1.32 12 -2 12 C-2 15.3 -2 18.6 -2 22 C-2.33 22 -2.66 22 -3 22 C-4.00992104 16.76187621 -3.83012417 12.81035078 -2.625 7.625 C-2.34914062 6.40039062 -2.07328125 5.17578125 -1.7890625 3.9140625 C-1 1 -1 1 0 0 Z " fill="#DAF1D8" transform="translate(191,280)"/>
<path d="M0 0 C-0.8125 2.4375 -0.8125 2.4375 -2 5 C-2.99 5.33 -3.98 5.66 -5 6 C-5 6.66 -5 7.32 -5 8 C-5.66 8 -6.32 8 -7 8 C-7 8.66 -7 9.32 -7 10 C-8.65 10.33 -10.3 10.66 -12 11 C-11.06558465 9.72689688 -10.12732889 8.456612 -9.1875 7.1875 C-8.66542969 6.47980469 -8.14335937 5.77210938 -7.60546875 5.04296875 C-3.64244742 0 -3.64244742 0 0 0 Z " fill="#59985B" transform="translate(282,227)"/>
<path d="M0 0 C1.32 0.33 2.64 0.66 4 1 C4 1.66 4 2.32 4 3 C4.53625 3.0825 5.0725 3.165 5.625 3.25 C8.89790163 4.28354788 11.29469379 5.90953611 14 8 C14 8.99 14 9.98 14 11 C13.01 11 12.02 11 11 11 C11 10.34 11 9.68 11 9 C10.29875 8.814375 9.5975 8.62875 8.875 8.4375 C4.90359949 6.45179974 2.6926582 3.46066724 0 0 Z " fill="#4B9C4C" transform="translate(124,235)"/>
<path d="M0 0 C2.46800047 1.15173355 4.04783565 2.04783565 6 4 C6.3359375 6.05859375 6.3359375 6.05859375 6.375 8.4375 C6.40335938 9.21996094 6.43171875 10.00242188 6.4609375 10.80859375 C6 13 6 13 2 16 C2.33 12.04 2.66 8.08 3 4 C2.01 3.34 1.02 2.68 0 2 C0 1.34 0 0.68 0 0 Z " fill="#CEEECE" transform="translate(215,140)"/>
<path d="M0 0 C0.66 0 1.32 0 2 0 C2 0.99 2 1.98 2 3 C2.99 3.33 3.98 3.66 5 4 C6.25 5.9375 6.25 5.9375 7 8 C6.67 8.66 6.34 9.32 6 10 C5.34 10 4.68 10 4 10 C3.67 9.34 3.34 8.68 3 8 C2.34 8 1.68 8 1 8 C-1.125 3.375 -1.125 3.375 0 0 Z " fill="#489E4A" transform="translate(151,256)"/>
<path d="M0 0 C3.375 -0.1875 3.375 -0.1875 7 0 C7.66 0.99 8.32 1.98 9 3 C11.30144109 4.07136051 13.6340213 5.07989717 16 6 C16 6.33 16 6.66 16 7 C9.61005132 8.00893926 5.00507608 4.57081515 0 1 C0 0.67 0 0.34 0 0 Z " fill="#D1EED4" transform="translate(198,152)"/>
<path d="M0 0 C-3.64859761 3.04049801 -7.7444533 4.96518762 -12 7 C-12 6.34 -12 5.68 -12 5 C-12.66 5 -13.32 5 -14 5 C-14 4.34 -14 3.68 -14 3 C-4.58997722 -0.44419134 -4.58997722 -0.44419134 0 0 Z " fill="#509052" transform="translate(242,167)"/>
<path d="M0 0 C0.90596924 0.01571045 1.81193848 0.0314209 2.74536133 0.04760742 C3.72827148 0.05727539 4.71118164 0.06694336 5.72387695 0.0769043 C6.74803711 0.10204102 7.77219727 0.12717773 8.82739258 0.15307617 C9.8631543 0.16661133 10.89891602 0.18014648 11.96606445 0.1940918 C14.52452957 0.22946228 17.08195038 0.27882073 19.63989258 0.34057617 C19.63989258 0.67057617 19.63989258 1.00057617 19.63989258 1.34057617 C7.26489258 2.33057617 7.26489258 2.33057617 -5.36010742 3.34057617 C-2.36010742 0.34057617 -2.36010742 0.34057617 0 0 Z " fill="#D8F5DA" transform="translate(170.360107421875,103.659423828125)"/>
<path d="M0 0 C1.65 0 3.3 0 5 0 C1.81160782 2.40262728 -1.40118103 4.77013493 -4.625 7.125 C-5.58664063 7.82882813 -6.54828125 8.53265625 -7.5390625 9.2578125 C-10 11 -10 11 -12 12 C-12 11.01 -12 10.02 -12 9 C-11.34 9 -10.68 9 -10 9 C-10 8.34 -10 7.68 -10 7 C-9.34 7 -8.68 7 -8 7 C-8 6.34 -8 5.68 -8 5 C-2.25 2 -2.25 2 0 2 C0 1.34 0 0.68 0 0 Z " fill="#D5F2D4" transform="translate(59,15)"/>
<path d="M0 0 C-0.66 1.32 -1.32 2.64 -2 4 C-6.29 3.01 -10.58 2.02 -15 1 C-15 0.67 -15 0.34 -15 0 C-13.25093341 -0.19601608 -11.50068154 -0.38147403 -9.75 -0.5625 C-8.77546875 -0.66691406 -7.8009375 -0.77132812 -6.796875 -0.87890625 C-4.2368648 -0.98974468 -2.41851841 -0.77738092 0 0 Z " fill="#549752" transform="translate(231,43)"/>
<path d="M0 0 C1.5625 1 1.5625 1 3 3 C2.96726452 5.76614782 2.49404328 8.26030547 2 11 C1.34 11 0.68 11 0 11 C-0.66 7.7 -1.32 4.4 -2 1 C-1.34 0.67 -0.68 0.34 0 0 Z " fill="#508F52" transform="translate(178,265)"/>
<path d="M0 0 C0.99 0 1.98 0 3 0 C3.33 1.32 3.66 2.64 4 4 C5.65 4.33 7.3 4.66 9 5 C9.66 6.98 10.32 8.96 11 11 C9.72689688 10.06558465 8.456612 9.12732889 7.1875 8.1875 C6.47980469 7.66542969 5.77210937 7.14335937 5.04296875 6.60546875 C3.20038793 5.15747502 1.53635131 3.76898495 0 2 C0 1.34 0 0.68 0 0 Z " fill="#CEECCF" transform="translate(101,252)"/>
<path d="M0 0 C0 0.66 0 1.32 0 2 C-1.24460783 2.67667998 -2.49596896 3.34094719 -3.75 4 C-4.44609375 4.37125 -5.1421875 4.7425 -5.859375 5.125 C-8 6 -8 6 -12 6 C-12.33 6.99 -12.66 7.98 -13 9 C-13.99 8.34 -14.98 7.68 -16 7 C-13.89983377 5.82558465 -11.79541245 4.66035988 -9.6875 3.5 C-9.09259766 3.16613281 -8.49769531 2.83226562 -7.88476562 2.48828125 C-5.04171156 0.93174886 -3.29339012 0 0 0 Z " fill="#DDF6DC" transform="translate(247,166)"/>
<path d="M0 0 C0.66 0.33 1.32 0.66 2 1 C-0.6846557 2.6581697 -3.35175196 4.17242743 -6.1875 5.5625 C-9.04751393 6.8423004 -9.04751393 6.8423004 -11 9 C-11.99 8.01 -12.98 7.02 -14 6 C-12.23002526 5.18563132 -10.45898848 4.3735706 -8.6875 3.5625 C-7.70136719 3.11003906 -6.71523437 2.65757813 -5.69921875 2.19140625 C-3 1 -3 1 0 0 Z " fill="#E1F7DF" transform="translate(153,90)"/>
<path d="M0 0 C-2.34104344 3.21893473 -5.10585211 3.64072324 -8.859375 4.4609375 C-12.0913954 5.27484045 -14.97431637 6.61322834 -18 8 C-17 5 -17 5 -14.453125 3.61328125 C-13.39609375 3.18402344 -12.3390625 2.75476563 -11.25 2.3125 C-10.20328125 1.87550781 -9.1565625 1.43851563 -8.078125 0.98828125 C-5.1565335 0.05025758 -3.03646256 -0.20805392 0 0 Z " fill="#498C49" transform="translate(78,11)"/>
<path d="M0 0 C8.19256018 1.17286652 8.19256018 1.17286652 11.5625 4.625 C12.2740625 5.800625 12.2740625 5.800625 13 7 C9.51038791 7 7.88519705 6.09620626 4.8125 4.5 C3.91144531 4.0359375 3.01039063 3.571875 2.08203125 3.09375 C1.39496094 2.7328125 0.70789063 2.371875 0 2 C0 1.34 0 0.68 0 0 Z " fill="#539457" transform="translate(227,94)"/>
<path d="M0 0 C0.99 0 1.98 0 3 0 C3.99 2.97 4.98 5.94 6 9 C4.68 9.33 3.36 9.66 2 10 C1.34 8.02 0.68 6.04 0 4 C0.33 3.67 0.66 3.34 1 3 C0.67 2.01 0.34 1.02 0 0 Z " fill="#579859" transform="translate(329,41)"/>
<path d="M0 0 C4.94515667 2.62711448 8.87775489 6.26645294 13 10 C12.67 10.66 12.34 11.32 12 12 C11.34 11.67 10.68 11.34 10 11 C10 10.34 10 9.68 10 9 C9.195625 8.731875 8.39125 8.46375 7.5625 8.1875 C6.716875 7.795625 5.87125 7.40375 5 7 C4.67 6.01 4.34 5.02 4 4 C1.99983534 2.79117904 1.99983534 2.79117904 0 2 C0 1.34 0 0.68 0 0 Z " fill="#4E8D4C" transform="translate(310,18)"/>
<path d="M0 0 C6.15234375 -0.09765625 6.15234375 -0.09765625 8 0 C8.33 0.33 8.66 0.66 9 1 C11.32817964 1.36760731 13.6618385 1.70241581 16 2 C16.33 3.32 16.66 4.64 17 6 C16.443125 5.80664062 15.88625 5.61328125 15.3125 5.4140625 C10.24882873 3.68625575 5.20677935 2.2306933 0 1 C0 0.67 0 0.34 0 0 Z " fill="#CDEACC" transform="translate(291,10)"/>
<path d="M0 0 C0.33 1.32 0.66 2.64 1 4 C0.01 4 -0.98 4 -2 4 C-2.061875 4.556875 -2.12375 5.11375 -2.1875 5.6875 C-3.33373872 8.94987173 -5.49390197 10.68667874 -8 13 C-8.33 12.34 -8.66 11.68 -9 11 C-6.03 7.37 -3.06 3.74 0 0 Z " fill="#DBF3DD" transform="translate(226,234)"/>
<path d="M0 0 C0.33 0 0.66 0 1 0 C1.07224854 2.52869889 1.06995134 4.72796703 0.4375 7.1875 C-0.23472969 11.50897661 0.45513694 15.68300803 1 20 C-1.37526046 15.56618048 -2.15001682 11.89774602 -2.1875 6.875 C-2.20167969 6.00617188 -2.21585937 5.13734375 -2.23046875 4.2421875 C-2 2 -2 2 0 0 Z " fill="#EDFCEC" transform="translate(83,204)"/>
<path d="M0 0 C5.17609824 3.28157862 9.85989729 6.45924219 14 11 C13.01 11.495 13.01 11.495 12 12 C12 11.34 12 10.68 12 10 C9.525 9.01 9.525 9.01 7 8 C7 7.34 7 6.68 7 6 C6.21625 5.938125 5.4325 5.87625 4.625 5.8125 C3.75875 5.544375 2.8925 5.27625 2 5 C0.8359375 2.44921875 0.8359375 2.44921875 0 0 Z " fill="#DDF6DD" transform="translate(266,66)"/>
<path d="M0 0 C1.231394 3.69418201 0.64432764 6.2056261 0 10 C-0.66 10 -1.32 10 -2 10 C-2.33 12.64 -2.66 15.28 -3 18 C-3.33 18 -3.66 18 -4 18 C-4.59244521 11.33499135 -2.48322845 6.13047025 0 0 Z " fill="#438C47" transform="translate(37,43)"/>
<path d="M0 0 C0.66 0 1.32 0 2 0 C0.25 3.875 0.25 3.875 -2 5 C-7.42307692 5.46153846 -7.42307692 5.46153846 -9.875 3.5 C-10.24625 3.005 -10.6175 2.51 -11 2 C-4.375 1.875 -4.375 1.875 -1 3 C-0.67 2.01 -0.34 1.02 0 0 Z " fill="#D1EFD0" transform="translate(186,339)"/>
<path d="M0 0 C-1.04874998 2.62187494 -1.64931313 3.79371361 -4.125 5.25 C-4.74375 5.4975 -5.3625 5.745 -6 6 C-6 4.68 -6 3.36 -6 2 C-6.66 1.67 -7.32 1.34 -8 1 C-4.93251126 -0.86240388 -3.40254489 -1.2151946 0 0 Z " fill="#5A945E" transform="translate(260,201)"/>
<path d="M0 0 C0.99 0.33 1.98 0.66 3 1 C-0.63 4.3 -4.26 7.6 -8 11 C-8.66 10.67 -9.32 10.34 -10 10 C-10 9.34 -10 8.68 -10 8 C-9.01 8 -8.02 8 -7 8 C-7 7.34 -7 6.68 -7 6 C-6.34 6 -5.68 6 -5 6 C-5 5.34 -5 4.68 -5 4 C-4.34 4 -3.68 4 -3 4 C-3 3.34 -3 2.68 -3 2 C-2.01 2 -1.02 2 0 2 C0 1.34 0 0.68 0 0 Z " fill="#5A9458" transform="translate(224,175)"/>
<path d="M0 0 C0 2 0 2 -1.3125 3.5625 C-3 5 -3 5 -6 6 C-6.66 6.66 -7.32 7.32 -8 8 C-8.66 8 -9.32 8 -10 8 C-10.33 7.01 -10.66 6.02 -11 5 C-9.54462432 4.16151196 -8.08559627 3.32936066 -6.625 2.5 C-5.81289062 2.0359375 -5.00078125 1.571875 -4.1640625 1.09375 C-2 0 -2 0 0 0 Z " fill="#529453" transform="translate(155,111)"/>
<path d="M0 0 C1.5843317 0.08768248 3.16753567 0.19587329 4.75 0.3125 C6.07257813 0.39951172 6.07257813 0.39951172 7.421875 0.48828125 C10.35415446 1.07029429 11.8402919 1.95635098 14 4 C14 4.66 14 5.32 14 6 C9.27934033 4.45730076 4.58335908 2.92205381 0 1 C0 0.67 0 0.34 0 0 Z " fill="#CEEDCF" transform="translate(225,67)"/>
<path d="M0 0 C4.56278985 0.45627898 7.94462093 0.81633435 12 3 C12.66 2.67 13.32 2.34 14 2 C14.66 2.66 15.32 3.32 16 4 C14.390625 5.1484375 14.390625 5.1484375 12 6 C8.984375 5.1015625 8.984375 5.1015625 5.75 3.625 C4.67234375 3.14289062 3.5946875 2.66078125 2.484375 2.1640625 C1.66453125 1.77992187 0.8446875 1.39578125 0 1 C0 0.67 0 0.34 0 0 Z " fill="#559857" transform="translate(230,47)"/>
<path d="M0 0 C3.26008643 3.16952847 6.22237877 6.39937989 9 10 C6.83125748 9.49396008 5.00032373 9.00016187 3 8 C3 7.34 3 6.68 3 6 C2.01 5.67 1.02 5.34 0 5 C0 3.35 0 1.7 0 0 Z " fill="#D7EFD6" transform="translate(43,335)"/>
<path d="M0 0 C1.09375 3.7421875 1.09375 3.7421875 0.25 6.0625 C-1.00124034 8.00192253 -2.33934943 9.40854321 -4 11 C-4.99 12.485 -4.99 12.485 -6 14 C-6.66 14 -7.32 14 -8 14 C-6.46162154 10.80375738 -4.71133468 7.78394426 -2.875 4.75 C-2.33617187 3.85796875 -1.79734375 2.9659375 -1.2421875 2.046875 C-0.62730469 1.03367187 -0.62730469 1.03367187 0 0 Z " fill="#D8F0D8" transform="translate(332,325)"/>
<path d="M0 0 C2.10478604 0.11409682 4.20884577 0.24165361 6.3125 0.375 C7.48425781 0.44460938 8.65601563 0.51421875 9.86328125 0.5859375 C13 1 13 1 16 3 C9.86090397 4.43680971 5.79622721 3.32637691 0 1 C0 0.67 0 0.34 0 0 Z " fill="#D2EED2" transform="translate(131,273)"/>
<path d="M0 0 C1.485 0.99 1.485 0.99 3 2 C3 2.66 3 3.32 3 4 C3.99 3.67 4.98 3.34 6 3 C6.53229326 4.26607607 7.05044544 5.53810412 7.5625 6.8125 C7.85253906 7.52019531 8.14257812 8.22789062 8.44140625 8.95703125 C9 11 9 11 8 14 C6.66101601 12.04532248 5.32870953 10.0866421 4 8.125 C3.2575 7.03445313 2.515 5.94390625 1.75 4.8203125 C0 2 0 2 0 0 Z " fill="#4B8D4B" transform="translate(149,260)"/>
<path d="M0 0 C-1.45449401 1.0055761 -2.91372443 2.00430435 -4.375 3 C-5.59316406 3.8353125 -5.59316406 3.8353125 -6.8359375 4.6875 C-9 6 -9 6 -11 6 C-11 5.01 -11 4.02 -11 3 C-4.03571429 -1.41964286 -4.03571429 -1.41964286 0 0 Z " fill="#DDF5DD" transform="translate(257,249)"/>
<path d="M0 0 C0 3 0 3 -2.25 5.375 C-3.1575 6.24125 -4.065 7.1075 -5 8 C-6.35555293 9.64864545 -7.69631653 11.31003995 -9 13 C-9.99 12.67 -10.98 12.34 -12 12 C-8.04 8.04 -4.08 4.08 0 0 Z " fill="#EAFEEB" transform="translate(239,221)"/>
<path d="M0 0 C-0.66 1.98 -1.32 3.96 -2 6 C-4.475 5.01 -4.475 5.01 -7 4 C-6.6875 2.0625 -6.6875 2.0625 -6 0 C-3 -1 -3 -1 0 0 Z " fill="#499C45" transform="translate(234,222)"/>
<path d="M0 0 C0 0.33 0 0.66 0 1 C-7.425 2.485 -7.425 2.485 -15 4 C-15 3.34 -15 2.68 -15 2 C-14.01 2 -13.02 2 -12 2 C-12 1.34 -12 0.68 -12 0 C-7.6835078 -0.76173392 -4.25566547 -1.16063604 0 0 Z " fill="#539354" transform="translate(181,129)"/>
<path d="M0 0 C0.33 1.32 0.66 2.64 1 4 C-2.5087188 7.09592835 -5.49197399 8.74194623 -10 10 C-6.66666667 6.66666667 -3.33333333 3.33333333 0 0 Z " fill="#E2F8E1" transform="translate(323,339)"/>
<path d="M0 0 C0.99 0.33 1.98 0.66 3 1 C0.36 4.3 -2.28 7.6 -5 11 C-5.33 10.01 -5.66 9.02 -6 8 C-4.78515625 5.95703125 -4.78515625 5.95703125 -3.0625 3.8125 C-2.49660156 3.09707031 -1.93070312 2.38164062 -1.34765625 1.64453125 C-0.90292969 1.10183594 -0.45820313 0.55914062 0 0 Z " fill="#E3F9E5" transform="translate(278,224)"/>
<path d="M0 0 C1.44277632 2.84655869 2.81175104 5.71639675 4.125 8.625 C4.47820312 9.40101563 4.83140625 10.17703125 5.1953125 10.9765625 C6 13 6 13 6 15 C3 14 3 14 1.3125 10.875 C-0.14581407 7.20642866 -0.24159551 3.94606007 0 0 Z " fill="#629862" transform="translate(82,220)"/>
<path d="M0 0 C0.66 0 1.32 0 2 0 C2.33 1.32 2.66 2.64 3 4 C-1.95 5.485 -1.95 5.485 -7 7 C-4.66666667 4.66666667 -2.33333333 2.33333333 0 0 Z " fill="#E4F7E3" transform="translate(226,176)"/>
<path d="M0 0 C0.33 0 0.66 0 1 0 C2.34237288 8.94915254 2.34237288 8.94915254 1 12 C0.01 12.495 0.01 12.495 -1 13 C-1.66 13.99 -2.32 14.98 -3 16 C-2.30834212 10.58201328 -1.24200752 5.3177215 0 0 Z " fill="#D6EED6" transform="translate(190,240)"/>
<path d="M0 0 C0.66 0 1.32 0 2 0 C4 4 6 8 8 12 C7.34 12.66 6.68 13.32 6 14 C4.99515796 12.04414675 3.99626195 10.08523763 3 8.125 C2.1646875 6.48917969 2.1646875 6.48917969 1.3125 4.8203125 C0 2 0 2 0 0 Z " fill="#E4F9E3" transform="translate(84,225)"/>
<path d="M0 0 C1.65 0 3.3 0 5 0 C5 1.98 5 3.96 5 6 C3.35 6 1.7 6 0 6 C0 4 0 2 0 0 Z " fill="#449945" transform="translate(235,214)"/>
<path d="M0 0 C2.37948772 0.17625835 3.70225849 0.69719773 5.37890625 2.40234375 C6.62115486 3.90649092 7.81376056 5.45129851 9 7 C6.69 6.67 4.38 6.34 2 6 C1.34 4.02 0.68 2.04 0 0 Z " fill="#519251" transform="translate(228,120)"/>
<path d="M0 0 C1.485 0.99 1.485 0.99 3 2 C3.328125 4.09375 3.328125 4.09375 3.25 6.5 C3.23453125 7.2940625 3.2190625 8.088125 3.203125 8.90625 C3 11 3 11 2 13 C1.01 12.67 0.02 12.34 -1 12 C-0.34 11.67 0.32 11.34 1 11 C0.67 7.37 0.34 3.74 0 0 Z " fill="#BFE3C2" transform="translate(249,110)"/>
<path d="M0 0 C3.26675996 1.08891999 3.95793848 1.84851256 6.0625 4.4375 C7.66078674 6.38553905 9.21573944 8.21573944 11 10 C8 10 8 10 5.95703125 8.3203125 C5.24933594 7.59585937 4.54164062 6.87140625 3.8125 6.125 C2.73935547 5.04605469 2.73935547 5.04605469 1.64453125 3.9453125 C0 2 0 2 0 0 Z " fill="#518E4E" transform="translate(45,336)"/>
<path d="M0 0 C3.16115776 1.36983503 3.9927092 1.9890638 6 5 C6.66 5 7.32 5 8 5 C8.33 6.98 8.66 8.96 9 11 C4.60708214 7.68090651 2.1772135 5.20112114 0 0 Z " fill="#DEF6DF" transform="translate(92,241)"/>
<path d="M0 0 C0.33 1.32 0.66 2.64 1 4 C-0.28524261 4.86380259 -1.57842419 5.71580369 -2.875 6.5625 C-3.59429687 7.03816406 -4.31359375 7.51382813 -5.0546875 8.00390625 C-5.69664062 8.33261719 -6.33859375 8.66132813 -7 9 C-7.66 8.67 -8.32 8.34 -9 8 C-6.03 5.36 -3.06 2.72 0 0 Z " fill="#559158" transform="translate(268,239)"/>
<path d="M0 0 C0.66 0 1.32 0 2 0 C0.54955729 4.10958767 -1.51110752 7.43258745 -4 11 C-4.75 9.375 -4.75 9.375 -5 7 C-3.50594347 4.4601039 -2.09462345 2.09462345 0 0 Z " fill="#E5F7E3" transform="translate(207,240)"/>
<path d="M0 0 C1.65 0 3.3 0 5 0 C5.33 0.99 5.66 1.98 6 3 C6.99 3 7.98 3 9 3 C9 3.99 9 4.98 9 6 C9.66 6 10.32 6 11 6 C10.67 6.66 10.34 7.32 10 8 C8.33055479 6.85821872 6.6645052 5.71147095 5 4.5625 C4.071875 3.92441406 3.14375 3.28632813 2.1875 2.62890625 C1.465625 2.09136719 0.74375 1.55382812 0 1 C0 0.67 0 0.34 0 0 Z " fill="#D5F1D6" transform="translate(129,235)"/>
<path d="M0 0 C3.00221784 4.50332676 4.31896025 8.57767579 4 14 C3.67 13.34 3.34 12.68 3 12 C2.34 12 1.68 12 1 12 C0.67 8.04 0.34 4.08 0 0 Z " fill="#CEEBD1" transform="translate(170,249)"/>
<path d="M0 0 C0.33 0 0.66 0 1 0 C1.05429959 1.74965358 1.09292823 3.49979787 1.125 5.25 C1.14820313 6.22453125 1.17140625 7.1990625 1.1953125 8.203125 C0.99862781 11.0196498 0.44568916 12.60949036 -1 15 C-1.66 14.67 -2.32 14.34 -3 14 C-2.01 9.38 -1.02 4.76 0 0 Z " fill="#4D8E4E" transform="translate(189,235)"/>
<path d="M0 0 C-4.455 2.97 -4.455 2.97 -9 6 C-9.33 4.68 -9.66 3.36 -10 2 C-3.375 -1.125 -3.375 -1.125 0 0 Z " fill="#D8F4D8" transform="translate(126,75)"/>
<path d="M0 0 C1.32 0.33 2.64 0.66 4 1 C1.14521674 2.90318884 -0.41941308 3.4619099 -3.6875 4.125 C-4.49574219 4.29257812 -5.30398438 4.46015625 -6.13671875 4.6328125 C-6.75160156 4.75398438 -7.36648438 4.87515625 -8 5 C-8.33 4.34 -8.66 3.68 -9 3 C-6.04335481 1.5216774 -3.25770263 1.93967217 0 2 C0 1.34 0 0.68 0 0 Z " fill="#4E8E4F" transform="translate(298,353)"/>
<path d="M0 0 C1.32 0 2.64 0 4 0 C4 0.99 4 1.98 4 3 C-1.37305699 4.67357513 -1.37305699 4.67357513 -4 5 C-6 3.625 -6 3.625 -7 2 C-3.535 1.505 -3.535 1.505 0 1 C0 0.67 0 0.34 0 0 Z " fill="#519B50" transform="translate(215,265)"/>
<path d="M0 0 C4.85963179 0.60745397 8.7405518 2.72758967 13 5 C12.34 5.66 11.68 6.32 11 7 C10.29875 6.54625 9.5975 6.0925 8.875 5.625 C5.97015409 3.98313057 3.1860652 2.96322901 0 2 C0 1.34 0 0.68 0 0 Z " fill="#DEF8E0" transform="translate(201,133)"/>
<path d="M0 0 C0.33 0.66 0.66 1.32 1 2 C1.99 2.33 2.98 2.66 4 3 C0.535 4.485 0.535 4.485 -3 6 C-3.99 4.68 -4.98 3.36 -6 2 C-4.02 1.34 -2.04 0.68 0 0 Z " fill="#529952" transform="translate(143,90)"/>
<path d="M0 0 C0.66 0.66 1.32 1.32 2 2 C4.43252661 2.46162427 4.43252661 2.46162427 7.125 2.625 C8.03507813 2.69976562 8.94515625 2.77453125 9.8828125 2.8515625 C10.58148438 2.90054687 11.28015625 2.94953125 12 3 C12 3.33 12 3.66 12 4 C7.9472484 4.98248524 4.16138263 5.08159574 0 5 C0 3.35 0 1.7 0 0 Z " fill="#CCF0CB" transform="translate(208,261)"/>
<path d="M0 0 C2 0 4 0 6 0 C6.33 1.32 6.66 2.64 7 4 C5.25 4.75 5.25 4.75 3 5 C0.75 3.0625 0.75 3.0625 -1 1 C-0.67 0.67 -0.34 0.34 0 0 Z " fill="#479B4B" transform="translate(139,247)"/>
<path d="M0 0 C6.87850467 4.18691589 6.87850467 4.18691589 8 8 C8.125 11.25 8.125 11.25 8 14 C7.67 14 7.34 14 7 14 C6.6596875 12.4221875 6.6596875 12.4221875 6.3125 10.8125 C5.20691905 6.82595265 3.03239701 4.79299724 0 2 C0 1.34 0 0.68 0 0 Z " fill="#448949" transform="translate(277,72)"/>
<path d="M0 0 C1.43655854 -0.08131463 2.8744483 -0.13933559 4.3125 -0.1875 C5.51326172 -0.23970703 5.51326172 -0.23970703 6.73828125 -0.29296875 C9.47851584 0.06198392 10.29171079 0.89366282 12 3 C9.18185434 4.40907283 7.82722796 3.50872691 4.875 2.5625 C3.96492187 2.27503906 3.05484375 1.98757812 2.1171875 1.69140625 C1.41851562 1.46324219 0.71984375 1.23507813 0 1 C0 0.67 0 0.34 0 0 Z " fill="#D2EED0" transform="translate(212,63)"/>
<path d="M0 0 C2 3 2 3 1.75 6.0625 C1 9 1 9 -1 11 C-1.02688151 9.35425434 -1.04634123 7.70838587 -1.0625 6.0625 C-1.07410156 5.14597656 -1.08570313 4.22945313 -1.09765625 3.28515625 C-1 1 -1 1 0 0 Z " fill="#58985B" transform="translate(333,314)"/>
<path d="M0 0 C1.98 0 3.96 0 6 0 C6 0.99 6 1.98 6 3 C3.03 2.505 3.03 2.505 0 2 C0.66 3.32 1.32 4.64 2 6 C1.01 5.67 0.02 5.34 -1 5 C-0.67 3.35 -0.34 1.7 0 0 Z " fill="#C4E0C0" transform="translate(121,231)"/>
<path d="M0 0 C0.66 1.32 1.32 2.64 2 4 C-3.28 3.34 -8.56 2.68 -14 2 C-14 1.67 -14 1.34 -14 1 C-12.04175306 0.83232136 -10.08339945 0.66588795 -8.125 0.5 C-6.48917969 0.36078125 -6.48917969 0.36078125 -4.8203125 0.21875 C-3.21670436 0.09437042 -1.60842449 0 0 0 Z " fill="#B8DCB8" transform="translate(196,148)"/>
<path d="M0 0 C0.99 0.33 1.98 0.66 3 1 C2.01 1.33 1.02 1.66 0 2 C-0.73323796 4.01508358 -0.73323796 4.01508358 -1 6 C-2.65 6 -4.3 6 -6 6 C-4 4 -2 2 0 0 Z " fill="#538F53" transform="translate(141,118)"/>
<path d="M0 0 C4.56454251 0.54339792 7.9728176 1.79463821 12 4 C9.38513938 4.96846689 8.1557873 5.04559628 5.4375 4.25 C3.11767035 3.06034377 1.69064839 1.95759288 0 0 Z " fill="#E2FAE0" transform="translate(215,91)"/>
<path d="M0 0 C0 0.66 0 1.32 0 2 C-3.58045212 4.74778884 -6.4923533 6.46968862 -11 7 C-4.48275862 0 -4.48275862 0 0 0 Z " fill="#DDF5DD" transform="translate(118,57)"/>
<path d="M0 0 C1.40907283 2.81814566 0.50872691 4.17277204 -0.4375 7.125 C-0.72496094 8.03507812 -1.01242188 8.94515625 -1.30859375 9.8828125 C-1.53675781 10.58148438 -1.76492187 11.28015625 -2 12 C-2.33 12 -2.66 12 -3 12 C-3.08090971 10.37581255 -3.13914995 8.75048255 -3.1875 7.125 C-3.22230469 6.22007813 -3.25710937 5.31515625 -3.29296875 4.3828125 C-3.19628906 3.59648438 -3.09960938 2.81015625 -3 2 C-2.01 1.34 -1.02 0.68 0 0 Z " fill="#BADFB8" transform="translate(35,46)"/>
<path d="M0 0 C1.67299959 0.65061095 3.33859237 1.32033324 5 2 C5.7425 2.268125 6.485 2.53625 7.25 2.8125 C9 4 9 4 9.75 6.625 C9.87375 7.800625 9.87375 7.800625 10 9 C8.8944811 8.06409496 7.79064547 7.12620142 6.6875 6.1875 C6.07261719 5.66542969 5.45773437 5.14335937 4.82421875 4.60546875 C3.14575321 3.12827531 1.56117966 1.59960869 0 0 Z " fill="#D8F4D6" transform="translate(315,21)"/>
<path d="M0 0 C2.18975773 3.28463659 2.99806563 6.20696275 4 10 C3.01 10 2.02 10 1 10 C-0.60725635 6.78548731 -0.05748185 3.56387464 0 0 Z " fill="#CEEACD" transform="translate(34,317)"/>
<path d="M0 0 C0.6875 1.8125 0.6875 1.8125 1 4 C-0.3125 5.75 -0.3125 5.75 -2 7 C-2.66 7 -3.32 7 -4 7 C-4 5.68 -4 4.36 -4 3 C-3.34 3 -2.68 3 -2 3 C-2 2.34 -2 1.68 -2 1 C-1.34 0.67 -0.68 0.34 0 0 Z " fill="#E7F9E8" transform="translate(261,241)"/>
<path d="M0 0 C0.99 0.66 1.98 1.32 3 2 C-0.96 3.98 -0.96 3.98 -5 6 C-5.33 5.34 -5.66 4.68 -6 4 C-5 2 -5 2 -2.625 0.75 C-1.75875 0.5025 -0.8925 0.255 0 0 Z " fill="#DDF2DB" transform="translate(248,202)"/>
<path d="M0 0 C2.475 0.99 2.475 0.99 5 2 C3.35 3.65 1.7 5.3 0 7 C0 4.66666667 0 2.33333333 0 0 Z " fill="#509751" transform="translate(149,137)"/>
<path d="M0 0 C1.32 0.33 2.64 0.66 4 1 C-0.455 3.97 -0.455 3.97 -5 7 C-5 6.01 -5 5.02 -5 4 C-4.01 4 -3.02 4 -2 4 C-1.34 2.68 -0.68 1.36 0 0 Z " fill="#D7F1D6" transform="translate(144,113)"/>
<path d="M0 0 C6.4 0.49230769 6.4 0.49230769 9.4375 3.0625 C10.2109375 4.0215625 10.2109375 4.0215625 11 5 C7.80389448 5 6.58282374 4.45328458 3.8125 3 C3.09707031 2.62875 2.38164062 2.2575 1.64453125 1.875 C1.10183594 1.58625 0.55914062 1.2975 0 1 C0 0.67 0 0.34 0 0 Z " fill="#CDEBCD" transform="translate(239,73)"/>
<path d="M0 0 C3 4 3 4 3.07421875 6.578125 C2.94660156 7.45984375 2.81898438 8.3415625 2.6875 9.25 C2.50767578 10.58804688 2.50767578 10.58804688 2.32421875 11.953125 C2.21722656 12.62859375 2.11023438 13.3040625 2 14 C1.67 14 1.34 14 1 14 C0.67 9.38 0.34 4.76 0 0 Z " fill="#E2FBE2" transform="translate(337,55)"/>
<path d="M0 0 C1.485 0.99 1.485 0.99 3 2 C3.29296875 4.8203125 3.29296875 4.8203125 3.1875 8.125 C3.16042969 9.22070312 3.13335937 10.31640625 3.10546875 11.4453125 C3.07066406 12.28835937 3.03585937 13.13140625 3 14 C2.67 14 2.34 14 2 14 C1.34 9.38 0.68 4.76 0 0 Z " fill="#E1FADF" transform="translate(297,158)"/>
<path d="M0 0 C3.3 0.33 6.6 0.66 10 1 C9.34 1.66 8.68 2.32 8 3 C4.4375 2.75 4.4375 2.75 1 2 C0.67 1.34 0.34 0.68 0 0 Z " fill="#D3F2D6" transform="translate(153,156)"/>
<path d="M0 0 C2.4375 0.8125 2.4375 0.8125 5 2 C5.33 2.99 5.66 3.98 6 5 C7.98 5 9.96 5 12 5 C12 5.33 12 5.66 12 6 C8.8125 6.375 8.8125 6.375 5 6 C2.8596502 4.18811972 1.61011698 2.34198833 0 0 Z " fill="#CEEECF" transform="translate(119,121)"/>
<path d="M0 0 C1.134375 0.020625 2.26875 0.04125 3.4375 0.0625 C-1.3125 3.9375 -1.3125 3.9375 -3.5625 5.0625 C-4.125 3.125 -4.125 3.125 -4.5625 1.0625 C-3.5625 0.0625 -3.5625 0.0625 0 0 Z " fill="#539454" transform="translate(109.5625,58.9375)"/>
<path d="M0 0 C1.258125 0.12375 2.51625 0.2475 3.8125 0.375 C4.87404297 0.47941406 4.87404297 0.47941406 5.95703125 0.5859375 C8 1 8 1 11 3 C8.03 3 5.06 3 2 3 C2 2.34 2 1.68 2 1 C1.34 0.67 0.68 0.34 0 0 Z " fill="#438745" transform="translate(136,276)"/>
<path d="M0 0 C0.66 0 1.32 0 2 0 C2.66 2.31 3.32 4.62 4 7 C3.34 7.66 2.68 8.32 2 9 C2 7.68 2 6.36 2 5 C1.34 5 0.68 5 0 5 C0 3.35 0 1.7 0 0 Z " fill="#599759" transform="translate(164,273)"/>
<path d="M0 0 C1 3 1 3 1 5 C0.34 5 -0.32 5 -1 5 C-1.33 5.99 -1.66 6.98 -2 8 C-2.99 7.67 -3.98 7.34 -5 7 C-3.35 4.69 -1.7 2.38 0 0 Z " fill="#5F9D62" transform="translate(285,218)"/>
<path d="M0 0 C0.99 0.495 0.99 0.495 2 1 C1.01 1.495 1.01 1.495 0 2 C0 1.34 0 0.68 0 0 Z M0 2 C-0.33 3.32 -0.66 4.64 -1 6 C-2.65 4.68 -4.3 3.36 -6 2 C-3 1 -3 1 0 2 Z " fill="#529A50" transform="translate(221,137)"/>
<path d="M0 0 C2.97 0 5.94 0 9 0 C9 1.32 9 2.64 9 4 C6.03 3.01 3.06 2.02 0 1 C0 0.67 0 0.34 0 0 Z " fill="#CFEFD2" transform="translate(212,110)"/>
<path d="M0 0 C0 0.99 0 1.98 0 3 C-1.8125 4.0625 -1.8125 4.0625 -4 5 C-4.99 4.67 -5.98 4.34 -7 4 C-3.375 0 -3.375 0 0 0 Z " fill="#5A975A" transform="translate(111,87)"/>
<path d="M0 0 C3.35620271 1.38877354 5.07298728 2.91677965 7 6 C7 6.66 7 7.32 7 8 C6.01 8 5.02 8 4 8 C3.67 6.35 3.34 4.7 3 3 C2.01 2.67 1.02 2.34 0 2 C0 1.34 0 0.68 0 0 Z " fill="#D3EED3" transform="translate(155,222)"/>
<path d="M0 0 C1.875 0.25 1.875 0.25 4 1 C5.25 3.0625 5.25 3.0625 6 5 C3.69 4.34 1.38 3.68 -1 3 C-0.67 2.01 -0.34 1.02 0 0 Z " fill="#5A9A5A" transform="translate(130,203)"/>
<path d="M0 0 C3.3 0.99 6.6 1.98 10 3 C9.67 3.66 9.34 4.32 9 5 C6.03 4.01 3.06 3.02 0 2 C0 1.34 0 0.68 0 0 Z " fill="#E2FBE2" transform="translate(127,205)"/>
<path d="M0 0 C0.33 0 0.66 0 1 0 C1.48828125 2.01822917 1.9765625 4.03645833 2.46484375 6.0546875 C2.94846992 8.0585657 2.94846992 8.0585657 4 10 C2.0625 9.6875 2.0625 9.6875 0 9 C-1.15941038 5.52176885 -0.70820884 3.54104422 0 0 Z " fill="#6DA56F" transform="translate(87,82)"/>
<path d="M0 0 C0.33 0 0.66 0 1 0 C1.66 2.64 2.32 5.28 3 8 C1.68 7.67 0.36 7.34 -1 7 C-0.67 4.69 -0.34 2.38 0 0 Z " fill="#E6F7E6" transform="translate(210,256)"/>
<path d="M0 0 C0.66 0.33 1.32 0.66 2 1 C1.34 3.97 0.68 6.94 0 10 C-0.33 10 -0.66 10 -1 10 C-1.125 3.375 -1.125 3.375 0 0 Z " fill="#5F9E60" transform="translate(183,257)"/>
<path d="M0 0 C0.99 0.33 1.98 0.66 3 1 C1.35 2.98 -0.3 4.96 -2 7 C-2.6875 5.1875 -2.6875 5.1875 -3 3 C-1.5625 1.25 -1.5625 1.25 0 0 Z " fill="#DAF5DD" transform="translate(220,224)"/>
<path d="M0 0 C0.99 0.33 1.98 0.66 3 1 C1.02 3.97 1.02 3.97 -1 7 C-1.66 6.01 -2.32 5.02 -3 4 C-2.34 4 -1.68 4 -1 4 C-0.67 2.68 -0.34 1.36 0 0 Z " fill="#E2F9E1" transform="translate(284,215)"/>
<path d="M0 0 C0.66 0.33 1.32 0.66 2 1 C1.67 2.98 1.34 4.96 1 7 C0.34 7 -0.32 7 -1 7 C-1.04254356 5.00045254 -1.04080783 2.99958364 -1 1 C-0.67 0.67 -0.34 0.34 0 0 Z " fill="#5D9C5B" transform="translate(195,211)"/>
<path d="M0 0 C2.0625 0.4375 2.0625 0.4375 4 1 C1.03 3.475 1.03 3.475 -2 6 C-1.125 1.125 -1.125 1.125 0 0 Z " fill="#5C9961" transform="translate(211,186)"/>
<path d="M0 0 C-0.33 0.99 -0.66 1.98 -1 3 C-1.99 3.33 -2.98 3.66 -4 4 C-4 3.34 -4 2.68 -4 2 C-4.66 2 -5.32 2 -6 2 C-6 1.34 -6 0.68 -6 0 C-3 -1 -3 -1 0 0 Z " fill="#529D50" transform="translate(234,170)"/>
<path d="M0 0 C0.33 0 0.66 0 1 0 C1.99 3.3 2.98 6.6 4 10 C3.01 10 2.02 10 1 10 C-0.60725635 6.78548731 -0.05748185 3.56387464 0 0 Z " fill="#659F67" transform="translate(148,146)"/>
<path d="M0 0 C0 0.99 0 1.98 0 3 C-0.99 3.33 -1.98 3.66 -3 4 C-4.66710346 5.49985609 -4.66710346 5.49985609 -6 7 C-6 4 -6 4 -4.125 1.8125 C-2 0 -2 0 0 0 Z " fill="#CFEDCF" transform="translate(156,139)"/>
<path d="M0 0 C0.66 0.66 1.32 1.32 2 2 C-2.75 6 -2.75 6 -5 6 C-4.1875 3.5625 -4.1875 3.5625 -3 1 C-2.01 0.67 -1.02 0.34 0 0 Z " fill="#5A9F5B" transform="translate(42,37)"/>
<path d="M0 0 C0.99 0.33 1.98 0.66 3 1 C1.02 3.97 1.02 3.97 -1 7 C-1.66 5.68 -2.32 4.36 -3 3 C-2.01 2.67 -1.02 2.34 0 2 C0 1.34 0 0.68 0 0 Z " fill="#E0F6DD" transform="translate(39,34)"/>
</svg>
